<?xml version="1.0" encoding="utf-8"?>
<svg viewBox="0 0 100 100" xmlns="http://www.w3.org/2000/svg">
  <path style="fill: rgb(216, 216, 216); stroke: rgb(0, 0, 0); stroke-width: 4px;" d="M 79.701 35 C 91.231 35 98.437 44.63 92.672 52.334 C 91.154 54.363 88.873 55.987 86.131 56.993"/>
  <path style="fill: rgb(216, 216, 216); stroke: rgb(0, 0, 0); stroke-width: 4px;" d="M 5.073 56.993 C 16.603 56.993 23.809 47.363 18.045 39.659 C 16.527 37.63 14.246 36.006 11.503 35" transform="matrix(-1, 0, 0, -1, 25.146479, 91.993)"/>
  <ellipse style="fill: rgb(216, 216, 216); stroke-width: 4px; stroke: rgb(0, 0, 0);" cx="49.866" cy="49.421" rx="35.5" ry="46.5"/>
  <path style="fill: rgb(216, 216, 216); stroke: rgb(0, 0, 0); stroke-width: 4px;" d="M 29.274 34.915 C 37.911 34.917 43.307 44.268 38.986 51.747 C 38.614 52.392 38.178 52.999 37.685 53.558" transform="matrix(-0.453991, 0.891006, -0.891006, -0.453991, 90.145931, 33.231548)"/>
  <path style="fill: rgb(216, 216, 216); stroke: rgb(0, 0, 0); stroke-width: 4px;" d="M 60.239 53.558 C 68.876 53.556 74.272 44.205 69.951 36.726 C 69.579 36.081 69.143 35.474 68.65 34.915" transform="matrix(0.453991, 0.891006, -0.891006, 0.453991, 75.372851, -34.524416)"/>
  <path style="fill: rgb(216, 216, 216); stroke: rgb(0, 0, 0); stroke-width: 4px;" d="M 40.035 61.303 C 48.476 63.836 56.127 79.187 52.871 86.208" transform="matrix(-0.453991, 0.891006, -0.891006, -0.453991, 137.765091, 65.276511)"/>
</svg>